<svg width="144" height="144" viewBox="0 0 144 144" fill="none" xmlns="http://www.w3.org/2000/svg">
<path d="M13.3028 95.924C17.1908 94.628 18.4148 90.812 18.4148 80.444V62.516C18.4148 55.388 17.5508 49.7 13.5188 46.676V46.1H30.7988L47.5748 82.388L63.9908 46.1H80.1188V46.676C76.5188 47.9 75.2948 52.292 75.2948 59.276V80.444C75.2948 90.812 76.5908 94.628 80.4788 95.924V96.5H57.7268V95.924C61.6148 94.628 62.8388 90.812 62.8388 80.444V55.172L43.9748 96.5H40.5188L20.7188 55.1V80.444C20.7188 90.812 21.9428 94.628 25.8308 95.924V96.5H13.3028V95.924ZM84.5997 95.924C88.4877 94.628 89.7117 90.812 89.7117 80.444V56.108C89.7117 50.636 88.4877 47.9 84.8877 46.676V46.1H113.688C125.424 46.1 131.688 51.5 131.688 62.156C131.688 73.1 124.488 80.372 113.76 80.372C109.944 80.372 105.624 79.364 102.168 77.78V80.444C102.168 90.812 103.392 94.628 107.28 95.924V96.5H84.5997V95.924ZM102.168 76.052C104.112 76.628 106.488 76.988 108.576 76.988C115.632 76.988 118.872 72.38 118.872 61.94C118.872 52.292 115.776 47.324 110.088 47.324H107.208C103.752 47.324 102.168 49.412 102.168 53.948V76.052Z" fill="#BE123C"/>
</svg>
