<svg width="250" height="250" viewBox="0 0 250 250" fill="none" xmlns="http://www.w3.org/2000/svg">
<g clip-path="url(#clip0_222964_4177)">
<path d="M214.023 101.147C236.27 106.174 250 113.944 250 125C250 136.056 236.27 143.826 214.023 148.853C230.777 164.331 238.782 177.925 233.254 187.5C227.726 197.075 211.951 196.939 190.17 190.169C196.94 211.95 197.076 227.725 187.501 233.253C177.926 238.781 164.332 230.776 148.854 214.021C143.827 236.27 136.056 250 125 250C113.944 250 106.174 236.271 101.147 214.024C85.6697 230.776 72.0758 238.781 62.5012 233.253C52.9264 227.725 53.062 211.95 59.8322 190.169C38.0517 196.939 22.2761 197.075 16.748 187.5C11.22 177.925 19.2252 164.331 35.9785 148.854C13.7303 143.827 -1.88355e-06 136.056 0 125C4.83283e-07 113.944 13.7303 106.173 35.9785 101.146C19.2252 85.669 11.22 72.0748 16.748 62.5C22.2761 52.9252 38.0517 53.0608 59.8322 59.831C53.062 38.0505 52.9264 22.2748 62.5012 16.7468C72.0758 11.2189 85.6697 19.2237 101.147 35.9765C106.174 13.7295 113.944 0 125 0C136.056 0 143.827 13.7304 148.854 35.9786C164.332 19.2244 177.926 11.2187 187.501 16.7468C197.076 22.2749 196.94 38.0505 190.17 59.831C211.951 53.0608 227.726 52.9252 233.254 62.5C238.782 72.0749 230.777 85.6692 214.023 101.147Z" fill="#180CC1"/>
</g>
<defs>
<clipPath id="clip0_222964_4177">
<rect width="250" height="250" fill="white"/>
</clipPath>
</defs>
</svg>
