<svg width="46" height="46" viewBox="0 0 46 46" fill="none" xmlns="http://www.w3.org/2000/svg">
<path d="M8 0.5H38C42.1421 0.5 45.5 3.85786 45.5 8V38C45.5 42.1421 42.1421 45.5 38 45.5H8C3.85786 45.5 0.5 42.1421 0.5 38V8C0.500001 3.85786 3.85787 0.5 8 0.5Z" stroke="#1F2937"/>
<path d="M28.8333 22.1666H17.1667C16.2462 22.1666 15.5 22.9128 15.5 23.8333V29.6666C15.5 30.5871 16.2462 31.3333 17.1667 31.3333H28.8333C29.7538 31.3333 30.5 30.5871 30.5 29.6666V23.8333C30.5 22.9128 29.7538 22.1666 28.8333 22.1666Z" stroke="#1F2937" stroke-linecap="round" stroke-linejoin="round"/>
<path d="M18.8333 22.1666V18.8333C18.8333 17.7282 19.2722 16.6684 20.0536 15.887C20.835 15.1056 21.8949 14.6666 22.9999 14.6666C24.105 14.6666 25.1648 15.1056 25.9462 15.887C26.7276 16.6684 27.1666 17.7282 27.1666 18.8333V22.1666" stroke="#1F2937" stroke-linecap="round" stroke-linejoin="round"/>
</svg>
