<svg width="100" height="100" viewBox="0 0 100 100" fill="none" xmlns="http://www.w3.org/2000/svg">
<g clip-path="url(#clip0_222964_4184)">
<path d="M40.1595 17.0556C38.0508 8.72222 40.9119 0 49.9999 0C59.088 0 61.9493 8.72222 59.8405 17.0556C59.0223 20.2889 57.6586 25.9729 56.296 31.719C54.6302 38.7433 53.7974 42.2555 55.7709 44.229C57.7445 46.2026 61.2566 45.3697 68.281 43.7039C74.0271 42.3413 79.7111 40.9777 82.9444 40.1595C91.2778 38.0508 100 40.9119 100 49.9999C100 59.088 91.2778 61.9493 82.9444 59.8405C79.7111 59.0223 74.0271 57.6586 68.281 56.296C61.2567 54.6302 57.7445 53.7974 55.771 55.7709C53.7974 57.7445 54.6303 61.2566 56.2961 68.281C57.6587 74.0271 59.0223 79.7111 59.8405 82.9444C61.9492 91.2778 59.0881 100 50.0001 100C40.912 100 38.0507 91.2778 40.1595 82.9444C40.9777 79.7111 42.3414 74.0271 43.704 68.281C45.3698 61.2567 46.2026 57.7445 44.2291 55.771C42.2555 53.7974 38.7434 54.6303 31.719 56.2961C25.9729 57.6587 20.2889 59.0223 17.0556 59.8405C8.72222 61.9492 -1.3769e-06 59.0881 0 50.0001C1.19175e-06 40.912 8.72222 38.0508 17.0556 40.1595C20.2889 40.9777 25.9729 42.3414 31.719 43.704C38.7433 45.3698 42.2555 46.2026 44.229 44.2291C46.2026 42.2555 45.3697 38.7434 43.7039 31.719C42.3413 25.9729 40.9777 20.2889 40.1595 17.0556Z" fill="#180CC1"/>
<path d="M25 36.5C31.3513 36.5 36.5 31.3513 36.5 25C36.5 18.6487 31.3513 13.5 25 13.5C18.6487 13.5 13.5 18.6487 13.5 25C13.5 31.3513 18.6487 36.5 25 36.5Z" fill="#180CC1"/>
<path d="M75 36.5C81.3513 36.5 86.5 31.3513 86.5 25C86.5 18.6487 81.3513 13.5 75 13.5C68.6487 13.5 63.5 18.6487 63.5 25C63.5 31.3513 68.6487 36.5 75 36.5Z" fill="#180CC1"/>
<path d="M36.5 75C36.5 81.3513 31.3513 86.5 25 86.5C18.6487 86.5 13.5 81.3513 13.5 75C13.5 68.6487 18.6487 63.5 25 63.5C31.3513 63.5 36.5 68.6487 36.5 75Z" fill="#180CC1"/>
<path d="M75 86.5C81.3513 86.5 86.5 81.3513 86.5 75C86.5 68.6487 81.3513 63.5 75 63.5C68.6487 63.5 63.5 68.6487 63.5 75C63.5 81.3513 68.6487 86.5 75 86.5Z" fill="#180CC1"/>
</g>
<defs>
<clipPath id="clip0_222964_4184">
<rect width="100" height="100" fill="white"/>
</clipPath>
</defs>
</svg>
