<svg width="24" height="24" viewBox="0 0 24 24" fill="none" xmlns="http://www.w3.org/2000/svg">
<path d="M16 5C16.5523 5 17 4.55228 17 4C17 3.44772 16.5523 3 16 3C15.4477 3 15 3.44772 15 4C15 4.55228 15.4477 5 16 5Z" stroke="#1E40AF" stroke-linecap="round" stroke-linejoin="round"/>
<path d="M18 19L19 12L13 13" stroke="#1E40AF" stroke-linecap="round" stroke-linejoin="round"/>
<path d="M5 8L8 5L13.5 8L11.14 11.5" stroke="#1E40AF" stroke-linecap="round" stroke-linejoin="round"/>
<path d="M4.23989 14.5C3.95773 15.4231 3.94878 16.4081 4.21411 17.3361C4.47944 18.2641 5.00772 19.0955 5.73517 19.73C6.46262 20.3644 7.35815 20.7746 8.31365 20.9113C9.26916 21.0479 10.2438 20.9051 11.1199 20.5" stroke="#1E40AF" stroke-linecap="round" stroke-linejoin="round"/>
<path d="M13.7599 17.5C14.042 16.5769 14.051 15.5919 13.7857 14.6639C13.5203 13.7358 12.9921 12.9044 12.2646 12.27C11.5372 11.6356 10.6416 11.2253 9.68612 11.0887C8.73062 10.952 7.75599 11.0949 6.87988 11.5" stroke="#1E40AF" stroke-linecap="round" stroke-linejoin="round"/>
</svg>
