<svg width="38" height="38" viewBox="0 0 38 38" fill="none" xmlns="http://www.w3.org/2000/svg">
<path d="M0 8C0 3.58172 3.58172 0 8 0H30C34.4183 0 38 3.58172 38 8V30C38 34.4183 34.4183 38 30 38H8C3.58172 38 0 34.4183 0 30V8Z" fill="#DBEAFE"/>
<path d="M19.0003 26.45C20.2503 26.45 21.292 27.3333 22.3337 27.3333C24.8337 27.3333 27.3337 20.6666 27.3337 17.15C27.3053 16.0706 26.8513 15.0462 26.0709 14.3C25.2904 13.5539 24.2466 13.1465 23.167 13.1666C21.317 13.1666 19.8337 14.3666 19.0003 14.8333C18.167 14.3666 16.6837 13.1666 14.8337 13.1666C13.7535 13.1443 12.7084 13.5509 11.9274 14.2975C11.1465 15.0442 10.6932 16.0699 10.667 17.15C10.667 20.6666 13.167 27.3333 15.667 27.3333C16.7087 27.3333 17.7503 26.45 19.0003 26.45Z" stroke="#1E40AF" stroke-linecap="round" stroke-linejoin="round"/>
<path d="M17.333 10.6667C18.1663 11.0834 18.9997 12.3334 18.9997 14.8334" stroke="#1E40AF" stroke-linecap="round" stroke-linejoin="round"/>
</svg>
