<svg width="24" height="25" viewBox="0 0 24 25" fill="none" xmlns="http://www.w3.org/2000/svg">
<path d="M10 16.75C10.5 17.05 11.2 17.25 12 17.25C12.8 17.25 13.5 17.05 14 16.75" stroke="#115E59" stroke-linecap="round" stroke-linejoin="round"/>
<path d="M15 12.75H15.01" stroke="#115E59" stroke-linecap="round" stroke-linejoin="round"/>
<path d="M19.38 7.563C20.0811 8.5824 20.5645 9.7354 20.8 10.95C21.1381 11.1138 21.4233 11.3695 21.6229 11.6878C21.8224 12.0062 21.9282 12.3743 21.9282 12.75C21.9282 13.1257 21.8224 13.4938 21.6229 13.8122C21.4233 14.1305 21.1381 14.3862 20.8 14.55C20.3683 16.5635 19.2592 18.368 17.6577 19.6625C16.0562 20.957 14.0592 21.6632 12 21.6632C9.94076 21.6632 7.94379 20.957 6.34231 19.6625C4.74083 18.368 3.63171 16.5635 3.2 14.55C2.86186 14.3862 2.57668 14.1305 2.37714 13.8122C2.17761 13.4938 2.07178 13.1257 2.07178 12.75C2.07178 12.3743 2.17761 12.0062 2.37714 11.6878C2.57668 11.3695 2.86186 11.1138 3.2 10.95C3.61426 8.9205 4.71589 7.09602 6.31902 5.78437C7.92216 4.47271 9.92866 3.75418 12 3.75C14 3.75 15.5 4.85 15.5 6.25C15.5 7.65 14.6 8.75 13.5 8.75C12.7 8.75 12 8.35 12 7.75" stroke="#115E59" stroke-linecap="round" stroke-linejoin="round"/>
<path d="M9 12.75H9.01" stroke="black" stroke-linecap="round" stroke-linejoin="round"/>
</svg>
