<svg width="38" height="38" viewBox="0 0 38 38" fill="none" xmlns="http://www.w3.org/2000/svg">
<path d="M0 8C0 3.58172 3.58172 0 8 0H30C34.4183 0 38 3.58172 38 8V30C38 34.4183 34.4183 38 30 38H8C3.58172 38 0 34.4183 0 30V8Z" fill="#DBEAFE"/>
<path d="M20.2497 14.8333C20.4798 14.8333 20.6663 14.6468 20.6663 14.4167C20.6663 14.1865 20.4798 14 20.2497 14C20.0196 14 19.833 14.1865 19.833 14.4167C19.833 14.6468 20.0196 14.8333 20.2497 14.8333Z" stroke="#1E40AF" stroke-linecap="round" stroke-linejoin="round"/>
<path d="M23.5837 18.1667C23.8138 18.1667 24.0003 17.9801 24.0003 17.75C24.0003 17.5199 23.8138 17.3333 23.5837 17.3333C23.3535 17.3333 23.167 17.5199 23.167 17.75C23.167 17.9801 23.3535 18.1667 23.5837 18.1667Z" stroke="#1E40AF" stroke-linecap="round" stroke-linejoin="round"/>
<path d="M16.0837 15.6667C16.3138 15.6667 16.5003 15.4801 16.5003 15.25C16.5003 15.0199 16.3138 14.8333 16.0837 14.8333C15.8535 14.8333 15.667 15.0199 15.667 15.25C15.667 15.4801 15.8535 15.6667 16.0837 15.6667Z" stroke="#1E40AF" stroke-linecap="round" stroke-linejoin="round"/>
<path d="M14.4167 19.8333C14.6468 19.8333 14.8333 19.6468 14.8333 19.4167C14.8333 19.1865 14.6468 19 14.4167 19C14.1865 19 14 19.1865 14 19.4167C14 19.6468 14.1865 19.8333 14.4167 19.8333Z" stroke="#1E40AF" stroke-linecap="round" stroke-linejoin="round"/>
<path d="M19.0003 10.6667C14.417 10.6667 10.667 14.4167 10.667 19C10.667 23.5833 14.417 27.3333 19.0003 27.3333C19.772 27.3333 20.3737 26.7117 20.3737 25.9267C20.3737 25.5625 20.2237 25.2308 20.0095 24.9892C19.7678 24.7483 19.6445 24.4458 19.6445 24.0517C19.6413 23.8682 19.6751 23.6861 19.7439 23.516C19.8126 23.3459 19.9149 23.1914 20.0446 23.0617C20.1743 22.932 20.3288 22.8298 20.4988 22.761C20.6689 22.6923 20.8511 22.6585 21.0345 22.6617H22.6978C25.2403 22.6617 27.327 20.5758 27.327 18.0333C27.3045 14.01 23.5512 10.6667 19.0003 10.6667Z" stroke="#1E40AF" stroke-linecap="round" stroke-linejoin="round"/>
</svg>
