<svg width="46" height="46" viewBox="0 0 46 46" fill="none" xmlns="http://www.w3.org/2000/svg">
<path d="M8 0.5H38C42.1421 0.5 45.5 3.85786 45.5 8V38C45.5 42.1421 42.1421 45.5 38 45.5H8C3.85786 45.5 0.5 42.1421 0.5 38V8C0.500001 3.85786 3.85787 0.5 8 0.5Z" stroke="#1F2937"/>
<path d="M23.0001 31.3334C27.6025 31.3334 31.3334 27.6024 31.3334 23C31.3334 18.3976 27.6025 14.6667 23.0001 14.6667C18.3977 14.6667 14.6667 18.3976 14.6667 23C14.6667 27.6024 18.3977 31.3334 23.0001 31.3334Z" stroke="#1F2937" stroke-linecap="round" stroke-linejoin="round"/>
<path d="M19.6667 23H26.3334" stroke="#1F2937" stroke-linecap="round" stroke-linejoin="round"/>
<path d="M23 26.3334L26.3333 23L23 19.6667" stroke="#1F2937" stroke-linecap="round" stroke-linejoin="round"/>
</svg>
