<svg width="177" height="177" viewBox="0 0 177 177" fill="none" xmlns="http://www.w3.org/2000/svg">
<path d="M154.46 91.4466C168.602 99.7939 176.301 108.145 173.865 115.723C171.429 123.302 160.306 125.603 143.949 124.148C152.023 138.448 154.515 149.53 148.617 154.876C142.718 160.221 131.934 156.652 118.496 147.213C118.338 163.634 114.955 174.478 107.174 176.157C99.3929 177.837 91.8381 169.354 84.9199 154.46C76.5723 168.603 68.2209 176.302 60.6423 173.867C53.0639 171.431 50.7625 160.308 52.2181 143.951C37.9182 152.024 26.8365 154.516 21.4913 148.618C16.1461 142.719 19.7147 131.935 29.1541 118.497C12.7327 118.339 1.88924 114.956 0.209498 107.175C-1.47024 99.3941 7.01206 91.8394 21.9058 84.9214C7.76301 76.5738 0.0633547 68.2224 2.49924 60.6438C4.93513 53.0652 16.0587 50.7639 32.4166 52.2197C24.3428 37.9195 21.8506 26.8375 27.7493 21.4923C33.6481 16.147 44.4318 19.7156 57.87 29.155C58.0279 12.7337 61.4106 1.89016 69.1917 0.210417C76.9727 -1.46929 84.5272 7.01271 91.4451 21.906C99.7925 7.76403 108.144 0.0649131 115.722 2.50073C123.301 4.93662 125.602 16.0602 124.146 32.4181C138.447 24.3438 149.529 21.8513 154.875 27.7502C160.22 33.649 156.651 44.4327 147.212 57.8709C163.633 58.0288 174.477 61.4115 176.156 69.1926C177.836 76.9738 169.354 84.5285 154.46 91.4466Z" fill="#E11D48"/>
</svg>
