<svg width="52" height="52" viewBox="0 0 52 52" fill="none" xmlns="http://www.w3.org/2000/svg">
<g clip-path="url(#clip0_222918_4170)">
<path d="M20.8829 8.45C19.7864 4.55 21.2742 0 26 0C30.7257 0 32.2136 4.55 31.117 8.45C30.3073 11.33 28.1024 18.1091 27.0044 21.458C26.8788 21.8411 27.1268 22.2434 27.4989 22.3984C27.8709 22.5534 28.3192 22.4381 28.5012 22.0785C30.0928 18.9342 33.3274 12.5811 34.7914 9.97196C36.7738 6.4389 41.0431 4.27356 44.3847 7.61519C47.7264 10.9568 45.5611 15.2262 42.028 17.2086C39.4188 18.6725 33.0658 21.9071 29.9215 23.4987C29.5619 23.6808 29.4465 24.1291 29.6016 24.5011C29.7566 24.8732 30.159 25.1212 30.542 24.9956C33.891 23.8976 40.67 21.6927 43.55 20.8829C47.45 19.7864 52 21.2742 52 26C52 30.7257 47.45 32.2136 43.55 31.117C40.67 30.3073 33.891 28.1024 30.542 27.0044C30.159 26.8788 29.7566 27.1268 29.6016 27.4989C29.4465 27.8709 29.5619 28.3192 29.9215 28.5013C33.0658 30.0929 39.4189 33.3275 42.028 34.7914C45.5611 36.7738 47.7264 41.0431 44.3848 44.3848C41.0431 47.7264 36.7737 45.5611 34.7914 42.028C33.3275 39.4189 30.0929 33.0658 28.5012 29.9215C28.3192 29.5619 27.8709 29.4466 27.4989 29.6016C27.1268 29.7566 26.8788 30.1589 27.0044 30.542C28.1024 33.891 30.3073 40.67 31.1171 43.55C32.2136 47.45 30.7258 52 26 52C21.2743 52 19.7864 47.45 20.8829 43.55C21.6927 40.67 23.8976 33.8909 24.9956 30.542C25.1212 30.1589 24.8732 29.7566 24.5011 29.6016C24.1291 29.4466 23.6808 29.5619 23.4988 29.9215C21.9072 33.0658 18.6726 39.4189 17.2086 42.028C15.2262 45.5611 10.9569 47.7264 7.61528 44.3848C4.27364 41.0432 6.4389 36.7738 9.972 34.7914C12.5812 33.3275 18.9342 30.0929 22.0785 28.5013C22.4381 28.3192 22.5535 27.8709 22.3984 27.4989C22.2434 27.1268 21.841 26.8788 21.458 27.0044C18.109 28.1024 11.33 30.3073 8.45 31.1171C4.55 32.2136 -7.15987e-07 30.7258 0 26C6.19712e-07 21.2743 4.55 19.7864 8.45 20.8829C11.33 21.6927 18.109 23.8976 21.458 24.9956C21.841 25.1212 22.2434 24.8732 22.3984 24.5011C22.5534 24.1291 22.4381 23.6808 22.0785 23.4987C18.9342 21.9071 12.5811 18.6725 9.97199 17.2086C6.43893 15.2262 4.27359 10.9569 7.61522 7.61525C10.9569 4.27361 15.2263 6.43887 17.2086 9.97197C18.6725 12.5811 21.9071 18.9342 23.4988 22.0785C23.6808 22.4381 24.1291 22.5534 24.5011 22.3984C24.8732 22.2434 25.1212 21.8411 24.9956 21.458C23.8976 18.109 21.6927 11.33 20.8829 8.45Z" fill="#E11D48"/>
</g>
<defs>
<clipPath id="clip0_222918_4170">
<rect width="52" height="52" fill="white"/>
</clipPath>
</defs>
</svg>
