<svg width="24" height="25" viewBox="0 0 24 25" fill="none" xmlns="http://www.w3.org/2000/svg">
<path d="M12 20.7031H21" stroke="#115E59" stroke-linecap="round" stroke-linejoin="round"/>
<path d="M16.5 4.20335C16.8978 3.80553 17.4374 3.58203 18 3.58203C18.2786 3.58203 18.5544 3.6369 18.8118 3.74351C19.0692 3.85011 19.303 4.00637 19.5 4.20335C19.697 4.40033 19.8532 4.63419 19.9598 4.89156C20.0665 5.14893 20.1213 5.42478 20.1213 5.70335C20.1213 5.98193 20.0665 6.25778 19.9598 6.51515C19.8532 6.77252 19.697 7.00637 19.5 7.20335L7 19.7034L3 20.7034L4 16.7034L16.5 4.20335Z" stroke="#115E59" stroke-linecap="round" stroke-linejoin="round"/>
<path d="M15 5.70312L18 8.70312" stroke="#115E59" stroke-linecap="round" stroke-linejoin="round"/>
</svg>
