<svg width="38" height="38" viewBox="0 0 38 38" fill="none" xmlns="http://www.w3.org/2000/svg">
<path d="M0 8C0 3.58172 3.58172 0 8 0H30C34.4183 0 38 3.58172 38 8V30C38 34.4183 34.4183 38 30 38H8C3.58172 38 0 34.4183 0 30V8Z" fill="#DBEAFE"/>
<path d="M19.0003 27.3333C23.6027 27.3333 27.3337 23.6024 27.3337 19C27.3337 14.3976 23.6027 10.6667 19.0003 10.6667C14.398 10.6667 10.667 14.3976 10.667 19C10.667 23.6024 14.398 27.3333 19.0003 27.3333Z" stroke="#1E40AF" stroke-linecap="round" stroke-linejoin="round"/>
<path d="M16.5752 16.5C16.7711 15.943 17.1578 15.4734 17.6668 15.1743C18.1758 14.8751 18.7743 14.7658 19.3562 14.8656C19.9381 14.9654 20.4659 15.2679 20.8461 15.7196C21.2263 16.1713 21.4344 16.7429 21.4335 17.3333C21.4335 19 18.9335 19.8333 18.9335 19.8333" stroke="#1E40AF" stroke-linecap="round" stroke-linejoin="round"/>
<path d="M19 23.1667H19.0083" stroke="#1E40AF" stroke-linecap="round" stroke-linejoin="round"/>
</svg>
