<svg width="24" height="25" viewBox="0 0 24 25" fill="none" xmlns="http://www.w3.org/2000/svg">
<path d="M3 21.7032C6 21.7032 10 20.7032 10 13.7032V5.70316C10 4.45316 9.244 3.68616 8 3.70316H4C2.75 3.70316 2 4.45316 2 5.67516V11.7032C2 12.9532 2.75 13.7032 4 13.7032C5 13.7032 5 13.7032 5 14.7032V15.7032C5 16.7032 4 17.7032 3 17.7032C2 17.7032 2 17.7112 2 18.7342V20.7032C2 21.7032 2 21.7032 3 21.7032Z" stroke="#854D0E" stroke-linecap="round" stroke-linejoin="round"/>
<path d="M15 21.7032C18 21.7032 22 20.7032 22 13.7032V5.70316C22 4.45316 21.243 3.68616 20 3.70316H16C14.75 3.70316 14 4.45316 14 5.67516V11.7032C14 12.9532 14.75 13.7032 16 13.7032H16.75C16.75 15.9532 17 17.7032 14 17.7032V20.7032C14 21.7032 14 21.7032 15 21.7032Z" stroke="#854D0E" stroke-linecap="round" stroke-linejoin="round"/>
</svg>
