<svg width="24" height="24" viewBox="0 0 24 24" fill="none" xmlns="http://www.w3.org/2000/svg">
<path d="M19.0702 4.93005C17.5131 3.37126 15.4848 2.37036 13.3004 2.08284C11.1159 1.79532 8.89767 2.23728 6.99023 3.34005" stroke="#1E40AF" stroke-linecap="round" stroke-linejoin="round"/>
<path d="M4 6H4.01" stroke="#1E40AF" stroke-linecap="round" stroke-linejoin="round"/>
<path d="M2.29035 9.6201C1.91544 11.1472 1.90593 12.7411 2.26258 14.2725C2.61923 15.804 3.33198 17.2297 4.34299 18.434C5.35399 19.6383 6.63474 20.5872 8.08125 21.2037C9.52776 21.8202 11.0993 22.0869 12.6682 21.9822C14.2371 21.8774 15.7592 21.4041 17.1109 20.6008C18.4626 19.7975 19.6058 18.6867 20.4478 17.3587C21.2897 16.0306 21.8065 14.5228 21.9564 12.9575C22.1063 11.3923 21.885 9.81376 21.3104 8.3501" stroke="#1E40AF" stroke-linecap="round" stroke-linejoin="round"/>
<path d="M16.2393 7.75992C15.6638 7.18108 14.9763 6.72575 14.2188 6.42179C13.4612 6.11783 12.6496 5.97163 11.8337 5.99213C11.0177 6.01263 10.2145 6.1994 9.47318 6.54103C8.73187 6.88265 8.06806 7.37193 7.52237 7.97894C6.97668 8.58594 6.56057 9.29791 6.29952 10.0713C6.03847 10.8446 5.93795 11.6631 6.00413 12.4767C6.0703 13.2902 6.30177 14.0817 6.68438 14.8027C7.06699 15.5237 7.59269 16.1591 8.22931 16.6699" stroke="#1E40AF" stroke-linecap="round" stroke-linejoin="round"/>
<path d="M12 18H12.01" stroke="#1E40AF" stroke-linecap="round" stroke-linejoin="round"/>
<path d="M17.9895 11.6599C18.0439 12.6113 17.8709 13.5619 17.4849 14.4332C17.0988 15.3044 16.5108 16.0711 15.7695 16.6699" stroke="#1E40AF" stroke-linecap="round" stroke-linejoin="round"/>
<path d="M12 14C13.1046 14 14 13.1046 14 12C14 10.8954 13.1046 10 12 10C10.8954 10 10 10.8954 10 12C10 13.1046 10.8954 14 12 14Z" stroke="#1E40AF" stroke-linecap="round" stroke-linejoin="round"/>
<path d="M13.4102 10.5899L19.0702 4.92993" stroke="#1E40AF" stroke-linecap="round" stroke-linejoin="round"/>
</svg>
