<svg width="24" height="25" viewBox="0 0 24 25" fill="none" xmlns="http://www.w3.org/2000/svg">
<path d="M7 10.75V22.75" stroke="#1E40AF" stroke-linecap="round" stroke-linejoin="round"/>
<path d="M15 6.63L14 10.75H19.83C20.1405 10.75 20.4467 10.8223 20.7244 10.9611C21.0021 11.1 21.2437 11.3016 21.43 11.55C21.6163 11.7984 21.7422 12.0867 21.7977 12.3922C21.8533 12.6977 21.8369 13.0119 21.75 13.31L19.42 21.31C19.2988 21.7254 19.0462 22.0904 18.7 22.35C18.3538 22.6096 17.9327 22.75 17.5 22.75H4C3.46957 22.75 2.96086 22.5393 2.58579 22.1642C2.21071 21.7891 2 21.2804 2 20.75V12.75C2 12.2196 2.21071 11.7109 2.58579 11.3358C2.96086 10.9607 3.46957 10.75 4 10.75H6.76C7.13208 10.7498 7.49674 10.6458 7.81296 10.4497C8.12917 10.2536 8.38442 9.97321 8.55 9.64L12 2.75C12.4716 2.75584 12.9357 2.86817 13.3578 3.0786C13.7799 3.28902 14.1489 3.59211 14.4374 3.9652C14.7259 4.3383 14.9263 4.77176 15.0237 5.2332C15.1212 5.69464 15.113 6.17213 15 6.63Z" stroke="#1E40AF" stroke-linecap="round" stroke-linejoin="round"/>
</svg>
