<svg width="24" height="25" viewBox="0 0 24 25" fill="none" xmlns="http://www.w3.org/2000/svg">
<path d="M16 21.7031V19.7031C16 18.6423 15.5786 17.6248 14.8284 16.8747C14.0783 16.1246 13.0609 15.7031 12 15.7031H6C4.93913 15.7031 3.92172 16.1246 3.17157 16.8747C2.42143 17.6248 2 18.6423 2 19.7031V21.7031" stroke="#1E40AF" stroke-linecap="round" stroke-linejoin="round"/>
<path d="M9 11.7031C11.2091 11.7031 13 9.91226 13 7.70312C13 5.49399 11.2091 3.70312 9 3.70312C6.79086 3.70312 5 5.49399 5 7.70312C5 9.91226 6.79086 11.7031 9 11.7031Z" stroke="#1E40AF" stroke-linecap="round" stroke-linejoin="round"/>
<path d="M22 21.703V19.703C21.9993 18.8167 21.7044 17.9558 21.1614 17.2553C20.6184 16.5549 19.8581 16.0546 19 15.833" stroke="#1E40AF" stroke-linecap="round" stroke-linejoin="round"/>
<path d="M16 3.83301C16.8604 4.05331 17.623 4.55371 18.1676 5.25532C18.7122 5.95693 19.0078 6.81984 19.0078 7.70801C19.0078 8.59618 18.7122 9.45909 18.1676 10.1607C17.623 10.8623 16.8604 11.3627 16 11.583" stroke="#1E40AF" stroke-linecap="round" stroke-linejoin="round"/>
</svg>
