<svg width="100" height="100" viewBox="0 0 100 100" fill="none" xmlns="http://www.w3.org/2000/svg">
<g clip-path="url(#clip0_222964_4201)">
<path d="M50 0C47.2969 0 45.1604 2.29133 45.3491 4.9878L48.195 45.6423L21.4602 14.8829C19.687 12.8428 16.556 12.7333 14.6447 14.6447C12.7333 16.556 12.8428 19.687 14.8829 21.4602L45.6422 48.195L4.9878 45.3491C2.29133 45.1604 1.01014e-06 47.2969 0 50C0 52.7031 2.29133 54.8396 4.9878 54.6509L45.6422 51.8051L14.8829 78.5398C12.8428 80.313 12.7333 83.444 14.6447 85.3553C16.556 87.2667 19.687 87.1572 21.4602 85.1171L48.195 54.3578L45.3491 95.0122C45.1604 97.7087 47.2969 100 50 100C52.7031 100 54.8396 97.7087 54.6509 95.0122L51.805 54.3578L78.5398 85.1171C80.313 87.1572 83.444 87.2667 85.3553 85.3553C87.2667 83.444 87.1572 80.313 85.1171 78.5398L54.3577 51.805L95.0122 54.6509C97.7087 54.8396 100 52.7031 100 50C100 47.2969 97.7087 45.1604 95.0122 45.3491L54.3578 48.195L85.1171 21.4602C87.1572 19.687 87.2667 16.556 85.3553 14.6447C83.444 12.7333 80.313 12.8428 78.5398 14.8829L51.805 45.6422L54.6509 4.9878C54.8396 2.29133 52.7031 0 50 0Z" fill="#E11D48"/>
</g>
<defs>
<clipPath id="clip0_222964_4201">
<rect width="100" height="100" fill="white"/>
</clipPath>
</defs>
</svg>
